# xmcd CD database file generated by OrangeCD 5.2
#
# Track frame offsets:
#	150
#	12223
#	25907
#	36353
#	51137
#	63783
#	76591
#	89370
#	103214
#	117603
#	136312
#	149995
#	182493
#
# Disc length: 2604 seconds
#
# Revision: 0
# Processed by: cddbd v1.5.2PL0 Copyright (c) Steve Scherf et al.
# Submitted via: OrangeCD 5.2
#
DISCID=b10a2a0d
DTITLE=Various Artist - The Best Of Blues 20th Century Masters-Millennium Coll
DTITLE=ection Volume 2
DYEAR=2006
DGENRE=Blues/Compilations
TTITLE0=B B King - Everyday I Have The Blues
TTITLE1=Bo Diddley - I'm A Man
TTITLE2=J.B. Lenoir - Mama Talk To Your Daughter
TTITLE3=John Mayall and The Bluesbreakers - Hide Away
TTITLE4=Little Walter - Key To The Highway
TTITLE5=Louis Jordan and His Tympany Five - Let The Good Times Roll
TTITLE6=Muddy Waters - Got My Mojo Working
TTITLE7=Robert Nighthawk - Sweet Black Angel
TTITLE8=Sonny Boy Williamson - Help Me
TTITLE9=Bobby "Blue" Bland - Stormy Monday Blues
TTITLE10=John Lee Hooker - One Bourbon One Scotch One Beer
TTITLE11=Buddy Guy - Stone Crazy
TTITLE12=Howlin' Wolf - Back Door Man
EXTD=
EXTT0=
EXTT1=
EXTT2=
EXTT3=
EXTT4=
EXTT5=
EXTT6=
EXTT7=
EXTT8=
EXTT9=
EXTT10=
EXTT11=
EXTT12=
PLAYORDER=
